<svg xmlns="http://www.w3.org/2000/svg" viewBox="0 0 280 220" fill="none">
  <ellipse cx="140" cy="208" rx="100" ry="10" fill="#5c3d28" opacity=".16"/>
  <rect x="36" y="176" width="208" height="24" rx="8" fill="#c9b27a" stroke="#8b5e3c" stroke-width="3"/>
  <path d="M28 112 140 58l112 54v6H28v-6Z" fill="#c4a06a" stroke="#5c3d28" stroke-width="4" stroke-linejoin="round"/>
  <path d="M46 96c10-14 16-10 20 0M78 90c12-16 20-10 22 2M196 94c-10-12-18-8-18 4" stroke="#a67c52" stroke-width="3" stroke-linecap="round"/>
  <rect x="46" y="114" width="188" height="78" rx="4" fill="#f4e6c8" stroke="#5c3d28" stroke-width="4"/>
  <rect x="78" y="132" width="28" height="22" rx="3" fill="#f0c14b" stroke="#5c3d28" stroke-width="2.5"/>
  <rect x="174" y="132" width="28" height="22" rx="3" fill="#f0c14b" stroke="#5c3d28" stroke-width="2.5"/>
  <rect x="112" y="146" width="24" height="46" rx="4" fill="#6b4428" stroke="#5c3d28" stroke-width="3"/>
  <rect x="144" y="146" width="24" height="46" rx="4" fill="#8b5e3c" stroke="#5c3d28" stroke-width="3"/>
  <g stroke="#6fa344" stroke-width="3" stroke-linecap="round">
    <path d="M52 196c2-16 6-16 8 0M68 198c2-18 6-18 8 0M84 196c2-14 5-14 7 0"/>
    <path d="M188 196c2-16 6-16 8 0M204 198c2-18 6-18 8 0M220 194c2-14 5-14 7 0"/>
  </g>
  <g fill="#e7c84a">
    <ellipse cx="56" cy="182" rx="3" ry="5"/>
    <ellipse cx="72" cy="180" rx="3" ry="5"/>
    <ellipse cx="192" cy="182" rx="3" ry="5"/>
    <ellipse cx="208" cy="180" rx="3" ry="5"/>
  </g>
  <path d="M24 188h36M220 188h36" stroke="#8b5e3c" stroke-width="3" stroke-linecap="round"/>
  <path d="M30 180v16M48 178v16M228 180v16M246 178v14" stroke="#6b4428" stroke-width="3" stroke-linecap="round"/>
</svg>
