<svg xmlns="http://www.w3.org/2000/svg" viewBox="0 0 64 64">
  <path d="M22.2 22.4V17.2c.2-6.4 4.2-10.2 10-10.4 5.6-.2 9.8 3.4 10.2 9.6v5.8" fill="none" stroke="#6b3a22" stroke-width="3.2" stroke-linecap="round"/>
  <path d="M14.2 23.6c-1.2 1.2-1.6 3.4-1.4 5.6L14.6 54.2h35.2l1.4-24.6c.2-2.4-.2-4.6-1.8-5.8-2.2-1.6-6.4-2.4-17.6-2.2-10.8.2-15.6.8-17.6 2Z" fill="#a67c52" stroke="#6b3a22" stroke-width="2.3" stroke-linejoin="round"/>
  <path d="M18.4 33.2h27.6l-.4 14.2H18.8Z" fill="#f0c14b" stroke="#8b5e3c" stroke-width="2" stroke-linejoin="round"/>
  <path d="M29.2 33.4v-4.2h6.4v4.4" fill="none" stroke="#6b3a22" stroke-width="2.2" stroke-linecap="round"/>
  <path d="M30.6 38.2h3.6" fill="none" stroke="#6b3a22" stroke-width="2" stroke-linecap="round"/>
  <path d="M16.4 28.2c6-1.2 12.4-1.6 19.2-1.4" fill="none" stroke="#f6e2b8" stroke-width="1.6" stroke-linecap="round"/>
</svg>
