<svg xmlns="http://www.w3.org/2000/svg" viewBox="0 0 240 210" fill="none">
<polygon points="120,186 188,154 120,122 52,154" fill="#e4d2a4" stroke="#8b5e3c" stroke-width="3" stroke-linejoin="round"/>
  <path d="M74 160c8-2 14-2 18 1M156 154c8-2 12-1 16 2" stroke="#c4a06a" stroke-width="1.3" stroke-linecap="round" opacity=".5"/>
  <g>
    <path d="M196 148c1-10 2-14 0-20" stroke="#5c3d28" stroke-width="2" stroke-linecap="round"/>
    <path d="M194 130c6-2 11-7 6-12-5 1-9 6-6 12z" fill="#6fa344" stroke="#5c3d28" stroke-width="1.3" stroke-linejoin="round"/>
    <circle cx="200" cy="124" r="2" fill="#e24b4b" stroke="#5c3d28" stroke-width="1"/>
  </g>
  <polygon points="104.0,158.0 60.0,138.0 60.0,74.0 104.0,94.0" fill="#e4d0b0" stroke="#5c3d28" stroke-width="3" stroke-linejoin="round"/>
<polygon points="136.0,164.0 104.0,158.0 104.0,94.0 136.0,100.0" fill="#eddcc4" stroke="#5c3d28" stroke-width="2.8" stroke-linejoin="round"/>
<polygon points="136.0,164.0 180.0,136.0 180.0,72.0 136.0,100.0" fill="#f7efe2" stroke="#5c3d28" stroke-width="3" stroke-linejoin="round"/>
<path d="M66,122 L100,148 M68,104 L102,130" stroke="#c4a882" stroke-width="1.4" stroke-linecap="round" opacity=".7"/>
<path d="M142,150 L174,128 M144,132 L176,110" stroke="#e7d3b4" stroke-width="1.4" stroke-linecap="round" opacity=".8"/>
<polygon points="60.0,79.0 104.0,99.0 136.0,105.0 180.0,77.0 188.2,56.2 145.0,88.0 95.6,78.8 51.7,58.4" fill="#6b4428"/>
<polygon points="60.0,79.0 104.0,99.0 95.6,78.8 51.7,58.4" fill="#6b4428" stroke="#5c3d28" stroke-width="2.4" stroke-linejoin="round"/>
<polygon points="104.0,99.0 136.0,105.0 145.0,88.0 95.6,78.8" fill="#8b5e3c" stroke="#5c3d28" stroke-width="2.4" stroke-linejoin="round"/>
<polygon points="136.0,105.0 180.0,77.0 188.2,56.2 145.0,88.0" fill="#a67c52" stroke="#5c3d28" stroke-width="2.4" stroke-linejoin="round"/>
<polygon points="145.0,88.0 95.6,78.8 51.7,58.4 120.0,36.0 188.2,56.2" fill="#c4a06a" stroke="#5c3d28" stroke-width="2.6" stroke-linejoin="round"/>
<path d="M59.7,56.4 L91.6,72.8 M97.6,70.8 L143.0,82.0 M149.0,80.0 L180.2,52.2" stroke="#8b5e3c" stroke-width="1.3" stroke-linecap="round" opacity=".55"/>
  <!-- striped awning, fixed to the front of the box -->
  <polygon points="96,108 148,116 162,142 82,132" fill="#c45c48" stroke="#5c3d28" stroke-width="2.6" stroke-linejoin="round"/>
  <path d="M90,118 L156,128 M86,126 L158,136" stroke="#fff6c2" stroke-width="3.4" stroke-linecap="round"/>
  <!-- shop window on the right wall -->
  <polygon points="143.9,144.9 170.3,128.1 170.3,107.0 143.9,123.8" fill="#3e342c" stroke="#5c3d28" stroke-width="2.4" stroke-linejoin="round"/>
  <polygon points="147.4,138.8 166.8,126.5 166.8,112.4 147.4,124.7" fill="#f6e27a" stroke="#5c3d28" stroke-width="1.2"/>
  <polygon points="150.1,133.3 154.5,130.5 154.5,122.8 150.1,125.6" fill="#c45c48" stroke="#5c3d28" stroke-width="1"/>
  <polygon points="157.1,127.5 160.6,125.3 160.6,117.6 157.1,119.8" fill="#6fa344" stroke="#5c3d28" stroke-width="1"/>
  <circle cx="164.2" cy="119.2" r="3.2" fill="#e7c56a" stroke="#5c3d28" stroke-width="1"/>
  <polygon points="149.2,135.1 165.0,125.0 165.0,114.8 149.2,124.9" fill="#fff6c2"/>
  <!-- timber door on the front pier -->
  <path d="M112,150 C112,134 118,124 124,122 C130,124 136,134 136,150 L134,166 L114,166 Z" fill="#3e342c" stroke="#5c3d28" stroke-width="2.4" stroke-linejoin="round"/>
  <polygon points="122,168 114,164 114,138 122,142" fill="#5c3d28" stroke="#5c3d28" stroke-width="2" stroke-linejoin="round"/>
  <polygon points="126,168 134,164 134,138 126,142" fill="#7a5236" stroke="#5c3d28" stroke-width="2" stroke-linejoin="round"/>
  <circle cx="123" cy="154" r="1.5" fill="#e7c56a"/>
  <circle cx="127" cy="154" r="1.5" fill="#f0c14b"/>
  <!-- hanging sign -->
  <g>
    <path d="M58,108 v18" stroke="#5c3d28" stroke-width="2.6" stroke-linecap="round"/>
    <polygon points="36,122 78,112 78,132 36,142" fill="#f0c14b" stroke="#5c3d28" stroke-width="2.3" stroke-linejoin="round"/>
    <path d="M46,124 h22 M46,129 h18 M46,134 h20" stroke="#5c3d28" stroke-width="1.5" stroke-linecap="round"/>
  </g>
</svg>
